<?xml version="1.0"?>
<svg xmlns="http://www.w3.org/2000/svg" xmlns:xlink="http://www.w3.org/1999/xlink" version="1.1" viewBox="0 0 192 192" width="128px" height="128px"><g fill="none" fill-rule="nonzero" stroke="none" stroke-width="1" stroke-linecap="butt" stroke-linejoin="miter" stroke-miterlimit="10" stroke-dasharray="" stroke-dashoffset="0" font-family="none" font-weight="none" font-size="none" text-anchor="none" style="mix-blend-mode: normal"><path d="M0,192v-192h192v192z" fill="none"/><g fill="#ffffff"><path d="M96,9c-7.71,0.033 -15.27764,2.103 -21.93164,6c-11.07,0.42 -18.80836,8.28117 -20.06836,20.70117c-0.555,5.595 -0.42042,11.23683 0.39258,16.79883c0.162,0.993 0.25153,1.995 0.26953,3c0,0.561 -0.08953,1.12064 -0.26953,1.68164c-0.444,0.012 -0.89222,0.06778 -1.32422,0.17578c-4.95,1.32 -7.01883,8.55398 -4.79883,16.83398c1.62,6 4.98258,10.5 8.64258,12c1.869,5.574 4.43648,10.88259 7.64648,15.80859l-0.00586,0.00586c0.26774,0.54252 0.68787,1.19287 1.14258,1.85156l-40.82227,23.30273c-11.466,5.433 -18.87305,17.14022 -18.87305,29.82422v17.01563c0,4.962 4.038,9 9,9h108.60352l0.94336,0.94336c1.038,1.035 2.67333,1.16541 3.86133,0.31641l6.74414,-4.81641c1.455,0.735 2.9693,1.35614 4.5293,1.86914l1.35938,8.17969c0.24,1.446 1.49198,2.50781 2.95898,2.50781h12c1.467,0 2.71898,-1.06181 2.95898,-2.50781l1.35938,-8.17969c1.56,-0.513 3.0773,-1.13414 4.5293,-1.86914l6.74414,4.81641c1.188,0.855 2.82033,0.71573 3.86133,-0.32227l8.48438,-8.48437c1.035,-1.038 1.17427,-2.67033 0.32227,-3.86133l-4.81641,-6.74414c0.735,-1.455 1.35614,-2.96644 1.86914,-4.52344l8.17969,-1.36523c1.446,-0.24 2.50781,-1.49198 2.50781,-2.95898v-12c0,-1.467 -1.06181,-2.71613 -2.50781,-2.95312l-8.17969,-1.36523c-0.513,-1.557 -1.13414,-3.06844 -1.86914,-4.52344l4.81641,-6.74414c0.855,-1.191 0.71573,-2.82919 -0.32227,-3.86719l-8.48437,-8.48437c-1.041,-1.041 -2.67333,-1.17727 -3.86133,-0.32227l-6.74414,4.81641c-1.455,-0.735 -2.9693,-1.35614 -4.5293,-1.86914l-1.35937,-8.17969c-0.24,-1.446 -1.49198,-2.50781 -2.95898,-2.50781h-12c-1.14305,0 -2.13788,0.65568 -2.64258,1.62305l-14.63672,-6.55664c0.26629,-0.39572 0.7207,-1.06641 0.7207,-1.06641c3.177,-4.929 5.71659,-10.24059 7.55859,-15.80859c3.69,-1.38 7.05258,-6 8.64258,-12c2.22,-8.25 -0.00469,-15.48398 -4.80469,-16.83398c-0.423,-0.108 -0.85406,-0.16378 -1.28906,-0.17578c-0.516,-3.537 -1.43976,-7.00322 -2.75976,-10.32422v-0.32812c1.422,0.171 2.81658,0.53213 4.14258,1.07813c1.53,0.636 3.28392,-0.08719 3.91992,-1.61719c0.237,-0.57 0.2902,-1.19883 0.1582,-1.79883c-5.01,-21.96 -21.32977,-35.19141 -44.00977,-35.19141zM96,15h3c18.21,0 31.35,9.30023 36.75,25.74023c-2.019,-0.393 -4.11117,0.13641 -5.70117,1.44141c-1.728,1.881 -2.07619,4.64648 -0.86719,6.89648c1.599,3.882 2.51517,8.01694 2.70117,12.21094c0.084,1.656 1.49348,2.93165 3.14648,2.84765c0.522,-0.027 1.02684,-0.18961 1.46484,-0.47461c0.24,-0.18 0.52045,-0.30628 0.81445,-0.36328c0.723,0.24 2.03906,3.90117 0.53906,9.45117c-1.5,5.55 -4.31555,7.85742 -5.18555,7.85742c-1.377,-0.054 -2.616,0.83911 -3,2.16211c-4.89,17.01 -18.12211,34.23047 -33.66211,34.23047c-15.54,0 -28.76789,-17.22117 -33.83789,-34.20117c-0.369,-1.269 -1.53052,-2.14425 -2.85352,-2.15625h-0.05859c-0.87,0 -3.72141,-2.34328 -5.19141,-7.86328c-1.47,-5.52 -0.15094,-9.27117 0.53906,-9.45117c0.297,0.051 0.57745,0.17728 0.81445,0.36328c1.404,0.879 3.25186,0.45478 4.13086,-0.94922c0.273,-0.438 0.43003,-0.93712 0.45703,-1.45312c0.072,-1.548 0.24277,-3.09019 0.50977,-4.61719c0.156,-1.644 0.07477,-3.30188 -0.24023,-4.92187c-0.717,-5.121 -0.80653,-10.30917 -0.26953,-15.45117c0.93,-9.57 6.57,-15.29883 15,-15.29883c0.648,0 1.27983,-0.20766 1.79883,-0.59766c5.769,-3.561 12.42117,-5.43234 19.20117,-5.40234zM78.51563,33.375c-1.76903,0.16195 -3.44156,1.10484 -4.47656,2.68359l-4.79883,7.28906c-0.888,1.398 -0.47222,3.25458 0.92578,4.14258c1.365,0.867 3.17198,0.49711 4.08398,-0.83789l4.79883,-7.29492l4.71094,2.28515c8.592,4.17 18.01636,6.34242 27.56836,6.35742h7.65234c1.656,0 3,-1.344 3,-3c0,-1.656 -1.344,-3 -3,-3h-7.65234c-8.649,-0.012 -17.18194,-1.98277 -24.96094,-5.75977l-4.67578,-2.2793c-1.01812,-0.49725 -2.11436,-0.68311 -3.17578,-0.58594zM123.09375,108.01172l17.0918,7.65235l-0.50391,3.01758c-1.56,0.513 -3.0773,1.143 -4.5293,1.875l-6.74414,-4.81641c-1.191,-0.855 -2.82633,-0.71873 -3.86133,0.32227l-8.48437,8.48438c-1.038,1.035 -1.17427,2.66733 -0.32227,3.86133l4.81641,6.74414c-0.738,1.455 -1.35914,2.96644 -1.86914,4.52344l-8.17969,1.36523c-1.446,0.24 -2.50781,1.49198 -2.50781,2.95898v12c0,1.467 1.06181,2.71598 2.50781,2.95898l8.17969,1.36523c0.513,1.557 1.13414,3.06844 1.86914,4.52344l-4.81641,6.74414c-0.855,1.191 -0.71573,2.82919 0.32227,3.86719l1.54102,1.54102h-102.60352c-1.656,0 -3,-1.347 -3,-3v-17.01562c0,-10.38 6.06253,-19.95591 15.64453,-24.50391l41.80664,-23.85937c7.20095,8.46972 16.38389,14.37891 26.54883,14.37891c10.41945,0 19.81613,-6.20012 27.09375,-14.98828zM146.54297,114h6.91406l1.2539,7.52344c0.192,1.164 1.05141,2.1052 2.19141,2.4082c2.352,0.621 4.58639,1.54505 6.65039,2.74805c1.017,0.591 2.29481,0.54052 3.25781,-0.14648l6.19922,-4.43555l4.89258,4.89258l-4.42969,6.19922c-0.69,0.96 -0.74934,2.23781 -0.15234,3.25781c1.203,2.07 2.13004,4.30153 2.74804,6.64453c0.303,1.14 1.2412,2.00526 2.40821,2.19727l7.52344,1.2539v6.91406l-7.52344,1.2539c-1.167,0.192 -2.10521,1.05727 -2.40821,2.19727c-0.618,2.343 -1.54504,4.57753 -2.74804,6.64453c-0.597,1.02 -0.53466,2.29781 0.15234,3.25781l4.42969,6.19922l-4.89258,4.89258l-6.19922,-4.42969c-0.96,-0.687 -2.23195,-0.74934 -3.25195,-0.15234c-2.067,1.203 -4.30725,2.1329 -6.65625,2.7539c-1.137,0.303 -1.9994,1.2442 -2.19141,2.4082l-1.2539,7.51758h-6.91406l-1.2539,-7.51758c-0.192,-1.164 -1.05141,-2.1052 -2.19141,-2.4082c-2.349,-0.621 -4.59225,-1.5509 -6.65625,-2.7539c-1.02,-0.597 -2.29496,-0.53466 -3.25195,0.15234l-6.19922,4.42969l-4.89258,-4.89258l4.42969,-6.19922c0.69,-0.96 0.74934,-2.23781 0.15234,-3.25781c-1.203,-2.07 -2.13004,-4.30153 -2.74805,-6.64453c-0.303,-1.14 -1.2412,-2.00526 -2.4082,-2.19727l-7.52344,-1.2539v-6.91406l7.52344,-1.2539c1.167,-0.192 2.1052,-1.05727 2.4082,-2.19727c0.618,-2.343 1.54505,-4.57753 2.74805,-6.64453c0.597,-1.02 0.53466,-2.29781 -0.15234,-3.25781l-4.42969,-6.19922l4.89258,-4.89258l6.20508,4.42969c0.96,0.687 2.23195,0.74335 3.25195,0.15234c2.064,-1.203 4.29839,-2.1329 6.65039,-2.7539c1.137,-0.303 1.9994,-1.2442 2.19141,-2.4082zM150,135c-8.271,0 -15,6.729 -15,15c0,8.271 6.729,15 15,15c8.271,0 15,-6.729 15,-15c0,-8.271 -6.729,-15 -15,-15zM150,141c4.962,0 9,4.038 9,9c0,4.962 -4.038,9 -9,9c-4.962,0 -9,-4.038 -9,-9c0,-4.962 4.038,-9 9,-9zM24,159c-1.659,0 -3,1.344 -3,3v6c0,1.656 1.341,3 3,3c1.659,0 3,-1.344 3,-3v-6c0,-1.656 -1.341,-3 -3,-3zM39,159c-1.659,0 -3,1.344 -3,3v6c0,1.656 1.341,3 3,3c1.659,0 3,-1.344 3,-3v-6c0,-1.656 -1.341,-3 -3,-3zM54,159c-1.659,0 -3,1.344 -3,3v6c0,1.656 1.341,3 3,3c1.659,0 3,-1.344 3,-3v-6c0,-1.656 -1.341,-3 -3,-3zM69,159c-1.659,0 -3,1.344 -3,3v6c0,1.656 1.341,3 3,3c1.659,0 3,-1.344 3,-3v-6c0,-1.656 -1.341,-3 -3,-3zM84,159c-1.659,0 -3,1.344 -3,3v6c0,1.656 1.341,3 3,3c1.659,0 3,-1.344 3,-3v-6c0,-1.656 -1.341,-3 -3,-3zM99,159c-1.659,0 -3,1.344 -3,3v6c0,1.656 1.341,3 3,3c1.659,0 3,-1.344 3,-3v-6c0,-1.656 -1.341,-3 -3,-3z"/></g></g></svg>
