<?xml version="1.0" encoding="utf-8"?>
<!-- Generator: Adobe Illustrator 21.0.0, SVG Export Plug-In . SVG Version: 6.00 Build 0)  -->
<svg version="1.1" id="Layer_1" xmlns="http://www.w3.org/2000/svg" xmlns:xlink="http://www.w3.org/1999/xlink" x="0px" y="0px"
	 viewBox="0 0 3000 3000" style="enable-background:new 0 0 3000 3000;" xml:space="preserve">
<style type="text/css">
	.st0{fill:#FFFFFF;}
</style>
<g>
	<path class="st0" d="M2414.2,1198.6c173.8,1.6,303.4,143.4,302.1,305.8c-1.4,166.3-137.2,301.6-303.7,301.1
		c-167.6-0.4-302.8-137.3-302.2-305.8C2111,1333.7,2247.9,1198,2414.2,1198.6z"/>
	<path class="st0" d="M594,1805.4c-173.9-1.5-303.5-143.4-302.2-305.6c1.3-166.3,137-301.6,303.6-301.3
		c167.6,0.4,302.9,137.1,302.3,305.6C897,1670.2,760.2,1806,594,1805.4z"/>
	<path class="st0" d="M1503.8,1805.4c-167.3-0.1-303.3-136.8-302.7-304.1c0.6-167.4,136.2-302.9,303.1-302.8
		c167.3,0.1,303.2,136.7,302.7,304.1C1806.3,1670.1,1670.7,1805.6,1503.8,1805.4z"/>
</g>
</svg>
