<?xml version="1.0" encoding="utf-8"?>
<!-- Generator: Adobe Illustrator 21.0.0, SVG Export Plug-In . SVG Version: 6.00 Build 0)  -->
<svg version="1.1" id="Layer_1" xmlns="http://www.w3.org/2000/svg" xmlns:xlink="http://www.w3.org/1999/xlink" x="0px" y="0px"
	 viewBox="0 0 3000 3000" style="enable-background:new 0 0 3000 3000;" xml:space="preserve">
<style type="text/css">
	.st0{fill:#FFFFFF;}
</style>
<g>
	<path class="st0" d="M2571.1,2399.6c0,9,0,18,0,27c-0.5,0.6-1.2,1.1-1.4,1.7c-7.5,24.9-25,38.5-50.9,39.3c-4.5,0.1-9,0.1-13.5,0.1
		c-669.6,0-1339.2,0-2008.8,0c-4.1,0-8.2,0.1-12.4-0.1c-24.5-0.8-42.6-14-51-37c-1.1-3-3.1-5.7-4.6-8.5c0-5.2,0-10.5,0-15.7
		c4.9-9.6,9.2-19.5,14.7-28.7c59-99.5,118.2-198.9,177.3-298.4c87.5-147.4,130.9-306.9,131.3-478.1c0.2-92.1,0-184.3,0.1-276.4
		c0.1-52.6,6.4-104.6,17.7-155.9C825.1,919.6,1001.2,715.8,1240,625c15.3-5.8,30.9-10.9,47.4-16.7c0-4,0-8.1,0-12.1
		c0-59.2-0.1-118.4,0.1-177.6c0-10.8,0.7-21.7,2-32.5c10.4-86.6,76.1-160.5,160.8-180.9c10.8-2.6,21.8-4.4,32.8-6.6c12,0,24,0,36,0
		c5.9,1,11.7,1.8,17.6,2.9c71.3,13.7,123.6,52.8,156.7,117.3c16.2,31.6,22.6,65.6,22.5,101c-0.2,58.4,0,116.9,0,175.3
		c0,4.4,0,8.8,0,13.3c5.1,1.7,8.9,2.9,12.8,4.2c241.7,77.9,430.2,276,496.3,521.5c17.9,66.6,26.4,134.3,26.5,203.2
		c0.1,88.4,0.2,176.8,0,265.2c-0.1,51.4,3.8,102.5,12.4,153.2c19,113,57.2,219.2,115.6,317.9c56.6,95.7,113.7,191.2,170.4,286.8
		C2557.2,2373.4,2564,2386.6,2571.1,2399.6z"/>
	<path class="st0" d="M1476.3,2793c-12.5-2.2-25-4.1-37.4-6.5c-123.8-23.7-213.3-93.1-271.4-204.2c-0.7-1.3-1.1-2.7-1.5-3.9
		c0.4-0.6,0.5-1,0.7-1.3c0.2-0.3,0.5-0.8,0.7-0.8c221.3-0.2,442.6-0.4,663.9-0.6c1.8,0,3.5,0.4,6.4,0.8c-1.5,3.7-2.6,6.8-4.1,9.6
		c-60,111.7-151.6,179.9-277,201.8c-10.3,1.8-20.6,3.4-30.9,5C1509.2,2793,1492.8,2793,1476.3,2793z"/>
</g>
<g>
</g>
<g>
</g>
<g>
</g>
<g>
</g>
<g>
</g>
<g>
</g>
<g>
</g>
<g>
</g>
<g>
</g>
<g>
</g>
<g>
</g>
<g>
</g>
<g>
</g>
<g>
</g>
<g>
</g>
</svg>
