<?xml version="1.0"?>
<svg xmlns="http://www.w3.org/2000/svg" viewBox="0 0 64 64" width="128px" height="128px">
    <path d="M 32 3 C 29.43 3.011 26.907453 3.701 24.689453 5 C 20.999453 5.14 18.42 7.7603906 18 11.900391 C 17.815 13.765391 17.859859 15.646 18.130859 17.5 C 18.184859 17.831 18.214703 18.165 18.220703 18.5 C 18.220703 18.687 18.190859 18.873547 18.130859 19.060547 C 17.982859 19.064547 17.833453 19.083141 17.689453 19.119141 C 16.039453 19.559141 15.349844 21.970469 16.089844 24.730469 C 16.629844 26.730469 17.750703 28.230469 18.970703 28.730469 C 19.593703 30.588469 20.449531 32.358 21.519531 34 L 21.517578 34.001953 C 21.606824 34.182794 21.746867 34.399577 21.898438 34.619141 L 8.2910156 42.386719 C 4.4690156 44.197719 2 48.100125 2 52.328125 L 2 58 C 2 59.654 3.346 61 5 61 L 41.201172 61 L 41.515625 61.314453 C 41.861625 61.659453 42.406734 61.702922 42.802734 61.419922 L 45.050781 59.814453 C 45.535781 60.059453 46.040547 60.2665 46.560547 60.4375 L 47.013672 63.164062 C 47.093672 63.646062 47.511 64 48 64 L 52 64 C 52.489 64 52.906328 63.646062 52.986328 63.164062 L 53.439453 60.4375 C 53.959453 60.2665 54.465219 60.059453 54.949219 59.814453 L 57.197266 61.419922 C 57.593266 61.704922 58.137375 61.6585 58.484375 61.3125 L 61.3125 58.484375 C 61.6575 58.138375 61.703922 57.594266 61.419922 57.197266 L 59.814453 54.949219 C 60.059453 54.464219 60.2665 53.960406 60.4375 53.441406 L 63.164062 52.986328 C 63.646062 52.906328 64 52.489 64 52 L 64 48 C 64 47.511 63.646062 47.094625 63.164062 47.015625 L 60.4375 46.560547 C 60.2665 46.041547 60.059453 45.537734 59.814453 45.052734 L 61.419922 42.804688 C 61.704922 42.407688 61.6585 41.861625 61.3125 41.515625 L 58.484375 38.6875 C 58.137375 38.3405 57.593266 38.295078 57.197266 38.580078 L 54.949219 40.185547 C 54.464219 39.940547 53.959453 39.7335 53.439453 39.5625 L 52.986328 36.835938 C 52.906328 36.353938 52.489 36 52 36 L 48 36 C 47.618982 36 47.287375 36.218559 47.119141 36.541016 L 42.240234 34.355469 C 42.328999 34.223563 42.480469 34 42.480469 34 C 43.539469 32.357 44.386 30.586469 45 28.730469 C 46.23 28.270469 47.350859 26.730469 47.880859 24.730469 C 48.620859 21.980469 47.879297 19.569141 46.279297 19.119141 C 46.138297 19.083141 45.994609 19.064547 45.849609 19.060547 C 45.677609 17.881547 45.369688 16.726141 44.929688 15.619141 L 44.929688 15.509766 C 45.403687 15.566766 45.868547 15.687141 46.310547 15.869141 C 46.820547 16.081141 47.405188 15.840078 47.617188 15.330078 C 47.696188 15.140078 47.713922 14.930469 47.669922 14.730469 C 45.999922 7.4104687 40.56 3 33 3 L 32 3 z M 32 5 L 33 5 C 39.07 5 43.45 8.1000781 45.25 13.580078 C 44.577 13.449078 43.879609 13.625547 43.349609 14.060547 C 42.773609 14.687547 42.657547 15.609375 43.060547 16.359375 C 43.593547 17.653375 43.898937 19.031687 43.960938 20.429688 C 43.988937 20.981687 44.458766 21.406906 45.009766 21.378906 C 45.183766 21.369906 45.352047 21.315703 45.498047 21.220703 C 45.578047 21.160703 45.671531 21.118609 45.769531 21.099609 C 46.010531 21.179609 46.449219 22.4 45.949219 24.25 C 45.449219 26.1 44.510703 26.869141 44.220703 26.869141 C 43.761703 26.851141 43.348703 27.148844 43.220703 27.589844 C 41.590703 33.259844 37.18 39 32 39 C 26.82 39 22.410703 33.259609 20.720703 27.599609 C 20.597703 27.176609 20.210531 26.884859 19.769531 26.880859 L 19.75 26.880859 C 19.46 26.880859 18.509531 26.099766 18.019531 24.259766 C 17.529531 22.419766 17.969219 21.169375 18.199219 21.109375 C 18.298219 21.126375 18.391703 21.168469 18.470703 21.230469 C 18.938703 21.523469 19.554656 21.382063 19.847656 20.914062 C 19.938656 20.768062 19.991 20.601688 20 20.429688 C 20.024 19.913688 20.080922 19.399625 20.169922 18.890625 C 20.221922 18.342625 20.194844 17.79 20.089844 17.25 C 19.850844 15.543 19.821 13.813609 20 12.099609 C 20.31 8.9096094 22.19 7 25 7 C 25.216 7 25.426609 6.9307812 25.599609 6.8007812 C 27.522609 5.6137813 29.74 4.99 32 5 z M 26.171875 11.125 C 25.582197 11.178984 25.024687 11.493281 24.679688 12.019531 L 23.080078 14.449219 C 22.784078 14.915219 22.922672 15.534078 23.388672 15.830078 C 23.843672 16.119078 24.446 15.995781 24.75 15.550781 L 26.349609 13.119141 L 27.919922 13.880859 C 30.783922 15.270859 33.925375 15.995 37.109375 16 L 39.660156 16 C 40.212156 16 40.660156 15.552 40.660156 15 C 40.660156 14.448 40.212156 14 39.660156 14 L 37.109375 14 C 34.226375 13.996 31.382062 13.339078 28.789062 12.080078 L 27.230469 11.320312 C 26.891094 11.154563 26.525682 11.092609 26.171875 11.125 z M 41.03125 36.003906 L 46.728516 38.554688 L 46.560547 39.560547 C 46.040547 39.731547 45.534781 39.941547 45.050781 40.185547 L 42.802734 38.580078 C 42.405734 38.295078 41.860625 38.3405 41.515625 38.6875 L 38.6875 41.515625 C 38.3415 41.860625 38.296078 42.404734 38.580078 42.802734 L 40.185547 45.050781 C 39.939547 45.535781 39.7325 46.039594 39.5625 46.558594 L 36.835938 47.013672 C 36.353938 47.093672 36 47.511 36 48 L 36 52 C 36 52.489 36.353938 52.905328 36.835938 52.986328 L 39.5625 53.441406 C 39.7335 53.960406 39.940547 54.464219 40.185547 54.949219 L 38.580078 57.197266 C 38.295078 57.594266 38.3415 58.140328 38.6875 58.486328 L 39.201172 59 L 5 59 C 4.448 59 4 58.551 4 58 L 4 52.328125 C 4 48.868125 6.0208437 45.676156 9.2148438 44.160156 L 23.150391 36.207031 C 25.550708 39.030272 28.611689 41 32 41 C 35.473149 41 38.605378 38.933293 41.03125 36.003906 z M 48.847656 38 L 51.152344 38 L 51.570312 40.507812 C 51.634312 40.895813 51.920781 41.209547 52.300781 41.310547 C 53.084781 41.517547 53.829578 41.825562 54.517578 42.226562 C 54.856578 42.423563 55.282516 42.406734 55.603516 42.177734 L 57.669922 40.699219 L 59.300781 42.330078 L 57.824219 44.396484 C 57.594219 44.716484 57.574438 45.142422 57.773438 45.482422 C 58.174437 46.172422 58.483453 46.916266 58.689453 47.697266 C 58.790453 48.077266 59.103187 48.365687 59.492188 48.429688 L 62 48.847656 L 62 51.152344 L 59.492188 51.570312 C 59.103188 51.634312 58.790453 51.922734 58.689453 52.302734 C 58.483453 53.083734 58.174438 53.828578 57.773438 54.517578 C 57.574437 54.857578 57.595219 55.283516 57.824219 55.603516 L 59.300781 57.669922 L 57.669922 59.300781 L 55.603516 57.824219 C 55.283516 57.595219 54.859531 57.574438 54.519531 57.773438 C 53.830531 58.174438 53.083781 58.484406 52.300781 58.691406 C 51.921781 58.792406 51.634313 59.106141 51.570312 59.494141 L 51.152344 62 L 48.847656 62 L 48.429688 59.494141 C 48.365688 59.106141 48.079219 58.792406 47.699219 58.691406 C 46.916219 58.484406 46.168469 58.174438 45.480469 57.773438 C 45.140469 57.574437 44.715484 57.595219 44.396484 57.824219 L 42.330078 59.300781 L 40.699219 57.669922 L 42.175781 55.603516 C 42.405781 55.283516 42.425562 54.857578 42.226562 54.517578 C 41.825563 53.827578 41.516547 53.083734 41.310547 52.302734 C 41.209547 51.922734 40.896813 51.634313 40.507812 51.570312 L 38 51.152344 L 38 48.847656 L 40.507812 48.429688 C 40.896812 48.365688 41.209547 48.077266 41.310547 47.697266 C 41.516547 46.916266 41.825562 46.171422 42.226562 45.482422 C 42.425563 45.142422 42.404781 44.716484 42.175781 44.396484 L 40.699219 42.330078 L 42.330078 40.699219 L 44.398438 42.175781 C 44.718437 42.404781 45.142422 42.423563 45.482422 42.226562 C 46.170422 41.825562 46.915219 41.515594 47.699219 41.308594 C 48.078219 41.207594 48.365687 40.893859 48.429688 40.505859 L 48.847656 38 z M 50 45 C 47.243 45 45 47.243 45 50 C 45 52.757 47.243 55 50 55 C 52.757 55 55 52.757 55 50 C 55 47.243 52.757 45 50 45 z M 50 47 C 51.654 47 53 48.346 53 50 C 53 51.654 51.654 53 50 53 C 48.346 53 47 51.654 47 50 C 47 48.346 48.346 47 50 47 z M 8 53 C 7.447 53 7 53.448 7 54 L 7 56 C 7 56.552 7.447 57 8 57 C 8.553 57 9 56.552 9 56 L 9 54 C 9 53.448 8.553 53 8 53 z M 13 53 C 12.447 53 12 53.448 12 54 L 12 56 C 12 56.552 12.447 57 13 57 C 13.553 57 14 56.552 14 56 L 14 54 C 14 53.448 13.553 53 13 53 z M 18 53 C 17.447 53 17 53.448 17 54 L 17 56 C 17 56.552 17.447 57 18 57 C 18.553 57 19 56.552 19 56 L 19 54 C 19 53.448 18.553 53 18 53 z M 23 53 C 22.447 53 22 53.448 22 54 L 22 56 C 22 56.552 22.447 57 23 57 C 23.553 57 24 56.552 24 56 L 24 54 C 24 53.448 23.553 53 23 53 z M 28 53 C 27.447 53 27 53.448 27 54 L 27 56 C 27 56.552 27.447 57 28 57 C 28.553 57 29 56.552 29 56 L 29 54 C 29 53.448 28.553 53 28 53 z M 33 53 C 32.447 53 32 53.448 32 54 L 32 56 C 32 56.552 32.447 57 33 57 C 33.553 57 34 56.552 34 56 L 34 54 C 34 53.448 33.553 53 33 53 z"/>
</svg>
