<?xml version="1.0" encoding="utf-8"?>
<!-- Generator: Adobe Illustrator 21.0.0, SVG Export Plug-In . SVG Version: 6.00 Build 0)  -->
<svg version="1.1" id="Layer_1" xmlns="http://www.w3.org/2000/svg" xmlns:xlink="http://www.w3.org/1999/xlink" x="0px" y="0px"
	 viewBox="0 0 3000 3000" style="enable-background:new 0 0 3000 3000;" xml:space="preserve">
<style type="text/css">
	.st0{fill:#FFFFFF;}
</style>
<g>
	<path class="st0" d="M785.5,1476.4c0,3.6,0,7.3,0,10.9c-0.1,265.7-0.1,531.3-0.3,797c0,6.7,1.7,12.2,5.4,17.7
		c25.1,37.3,49.9,74.8,75,112.2c8.3,12.3,11.3,25.4,7.1,39.9c-5.2,17.8-20.9,30.6-39.3,32c-3.3,0.3-6.7,0.2-10,0.2
		c-174,0-348,0-522-0.1c-6.3,0-12.8-0.2-18.8-1.7c-28.7-7.4-42.1-39.2-27.7-65.1c1.8-3.2,3.9-6.2,5.9-9.3
		c24.2-36.3,48.4-72.7,72.7-108.9c3.3-4.9,4.9-9.8,4.9-15.7c-0.2-136.7-0.2-273.3-0.2-410c0-4.6,0-9.2,0-15c-4.7,0-8.2,0-11.8,0
		c-39.7,0-79.3-0.1-119,0c-9.9,0-19.2-1.9-27.5-7.5c-12.3-8.4-19.2-20.1-20-35.1c-0.1-2.3-0.1-4.7-0.1-7c0-177,0.1-354,0-531
		c0-38.5,8.4-74.9,27.6-108.2c41.4-71.8,103.9-110.5,186.7-116c2.3-0.1,4.6-0.3,7.9-0.5c-1.2-2.6-1.9-4.7-3.1-6.4
		c-28.3-40.8-41.5-86-40.8-135.5c0.4-27,0-54,0.1-81c0.5-106.6,73.2-196.3,177.3-218.9c119.7-26,239.6,52,264.8,172.2
		c3.6,17.4,4.8,35,4.8,52.6c0,25.3-0.2,50.7,0.1,76c0.6,49.5-12.7,94.7-41.2,135.3c-0.9,1.3-1.6,2.8-2.9,5
		c106.5,6.7,180.3,58.8,222.7,158c1.7-3.9,3.1-6.9,4.2-10c13.4-36.6,26.7-73.2,40.1-109.8c1-2.8,2-5.7,3.2-8.4
		c7.9-18.3,21.8-28.3,41.9-28.5c39.3-0.2,78.7-0.1,118-0.1c18.3,0,36.7,1.1,55-0.2c36.4-2.6,59.8,32.2,45.5,66.5
		c-31.7,76.3-61.6,153.3-92.3,230c-16.4,41.1-32.5,82.4-49.4,123.4c-26.4,63.8-73.9,102.8-141.9,114.4c-77.2,13.1-153-25.7-190.2-95
		c-3.4-6.3-6.7-12.7-10-19C787.2,1475.8,786.4,1476.1,785.5,1476.4z M695.9,1680.7c0-4.9,0-9.1,0-13.4c0-126,0-252,0-377.9
		c0-4-0.1-8,0.1-12c0.7-20.5,13.7-36.8,33.6-42.1c19.2-5.1,39.4,3.4,49.7,20.9c1.9,3.2,3.4,6.5,5.1,9.8c30.8,61.7,61,123.7,92.5,185
		c18.1,35.3,48.3,53,88,50.9c38.8-2.1,66.4-22.4,81.4-58.2c15.4-36.9,29.7-74.2,44.4-111.4c0.9-2.4,1.5-4.9,2.3-7.8
		c-24.7,0-48.6,0-72.9,0c-1.1,2.6-2.3,5-3.2,7.5c-4,10.6-7.3,21.5-11.9,31.8c-7.9,17.9-22.2,27.2-41.8,26.9
		c-19.2-0.3-32.6-10.1-40.6-27.4c-1-2.1-1.6-4.4-2.4-6.5c-13.7-37.5-27.2-75.1-41-112.6c-22.6-61.3-74.8-98.2-139.9-98.8
		c-40.7-0.4-81.3,0-122,0c-3.2,0-6.4,0.5-10.5,0.8c0,25.5,0,50.1,0,74.7c0,24.7,0,49.3,0,74c0,24.7,0,49.3,0,74c0,25,0,50,0,75
		c0,24.7,0,49.3,0,74c0,24.5,0.2,49-0.2,73.9c-30.3,0-59.2,0-89.5,0c0-4.8,0-9,0-13.2c0-102,0-204,0-305.9c0-38.3-0.1-76.7-0.2-115
		c0-3.9-0.3-7.7-0.5-11.7c-3.9-0.2-6.6-0.5-9.2-0.5c-41,0-82-0.1-123,0.1c-8,0-16.1,0.5-23.9,2c-65.9,12.3-110.6,66-110.8,133.5
		c-0.3,99.6-0.1,199.3,0,298.9c0,3.6,0.3,7.1,0.5,11.4c29.6,0,58.4,0,88.3,0c0-4.5,0-8.4,0-12.3c0-97,0-194,0-290.9
		c0-3.3-0.1-6.7,0.1-10c0.9-23.3,18.6-41.9,41.5-43.7c22.3-1.8,42.6,13.6,47,36.2c1,5.2,1.2,10.6,1.2,15.9
		c0.1,127,0.1,254,0.1,380.9c0,4.2,0,8.5,0,13.4C517.8,1680.7,606.2,1680.7,695.9,1680.7z M745.1,2395.7c-2.8-4.4-4.5-7.3-6.3-10
		c-10.1-15.3-19.8-30.9-30.6-45.7c-9.2-12.8-12.7-26.4-12.6-42.1c0.3-171,0.1-342,0.1-512.9c0-4.2,0-8.5,0-13.4
		c-89.6,0-178.1,0-267.5,0c0,4.9,0,9.1,0,13.4c0,172-0.1,344,0,515.9c0,13.2-3.1,24.8-10.6,35.7c-11.7,17-23,34.3-34.4,51.6
		c-1.4,2.1-2.4,4.4-4.1,7.5c46.3,0,91.4,0,137.8,0c0-59.8,0-119,0-178.2c0-59.7,0-119.3,0-179c0-59.2,0-118.4,0.1-178.4
		c30.6,0,59.7-0.3,89.9,0.2c0,179.3,0,357.1,0,535.5C653.1,2395.7,698.2,2395.7,745.1,2395.7z M696.5,877.4
		c-0.7-20.6-0.1-41.4-2.2-61.8c-8.2-77.2-84.3-131.3-160.3-114.5c-62.2,13.7-105.3,66.8-105.8,130.6c-0.2,30-0.1,60,0,89.9
		c0,5.7,0.1,11.4,0.9,16.9c10.6,78,81.3,124.4,149.3,115.9c59.7-7.5,109.8-56.3,115.9-116.1C696.3,918.2,695.8,897.8,696.5,877.4z
		 M250.7,1682.2c-2.3,14.6-1.8,79.9,0.6,87.4c28.7,0,57.4,0,86.2,0c0-29.5,0-58.3,0-87.4C308.2,1682.2,279.7,1682.2,250.7,1682.2z
		 M1130.3,1233.7c11.5-29,23-57.9,34.8-87.9c-27.9,0-54,0-80.7,0c-10.6,29.2-21.1,58.1-31.9,87.9
		C1079,1233.7,1103.9,1233.7,1130.3,1233.7z"/>
	<path class="st0" d="M1902.5,1502.5c0,66.8,0,131.8,0,197.8c95.8,54.8,192,109.9,289.4,165.7c-14.8,26-29.2,51.3-44.3,77.9
		c-81.7-46.7-162.7-93-245.4-140.2c0,49.6,0,97.1,0,146c-30.1,0.5-59.2,0.2-89.8,0.1c-0.3-24.6-0.1-48.5-0.2-72.3
		c0-23.9,0-47.8,0-73.9c-82.7,47.2-163.6,93.4-245.7,140.3c-15.1-25.5-29.2-51-44.3-77.5c24-14.5,48.3-27.9,72.4-41.8
		c24-13.8,48-27.4,72-41.1c24.3-13.9,48.6-27.8,72.9-41.7c24-13.7,48-27.5,72.2-41.3c0-65.6,0-130.8,0-197.4
		c-27.7-0.7-55.2-0.2-82.7-0.3c-27.3-0.1-54.7,0-82,0c-27.7,0-55.3,0-83,0s-55.3,0-83,0s-55.3,0-83,0c-27.3,0-54.7,0-82,0
		c-27.6,0-55.2,0-83.5,0c0-30.1,0-59.2,0-89.4c476,0,951.5,0,1427.6,0c0-328,0-654.8,0-981.5c-7.8-2-1587.9-2.7-1605.7-0.7
		c-0.3,2.6-0.9,5.4-0.9,8.2c-0.2,11.7-0.2,23.3-0.2,35c0,158,0,316,0,474c0,5.6,0,11.2,0,17.5c-29.9,0-58.8,0-89.1,0
		c-0.8-13.4-0.3-26.9-0.4-40.4c-0.1-13.7,0-27.3,0-41c0-13.7,0-27.3,0-41c0-14,0-28,0-42c0-13.7,0-27.3,0-41c0-13.7,0-27.3,0-41
		c0-13.7,0-27.3,0-41c0-13.7,0-27.3,0-41c0-13.7,0-27.3,0-41c0-14,0-28,0-42c0-13.7,0-27.3,0-41c0-13.7,0-27.3,0-41
		c0-13.6,0-27.2,0-41.4c-3.6-0.3-6.1-0.8-8.7-0.8c-11.7-0.1-23.3,0.1-35-0.1c-26.3-0.5-45.7-19.3-45.8-45.5
		c-0.2-59.3-0.3-118.7,0-178c0.1-25.8,19.3-44.4,45.2-44.8c8-0.1,16,0,24,0c613.3,0,1226.6,0,1839.9,0c3.7,0,7.3,0,11,0
		c26,0.5,44.6,18.7,45.6,44.6c0.1,2,0,4,0,6c0,56,0.1,112-0.1,168c0,6.6-0.8,13.4-2.7,19.6c-5.6,17.5-21.9,29.4-40.8,30.1
		c-11.7,0.4-23.3,0.1-35,0.2c-3.2,0-6.5,0.3-10.3,0.5c0,327.2,0,653.7,0,980.8c9.4,2.8,19,1.2,28.5,1.5c10,0.3,20,0.1,30,0.1
		c9.6,0,19.3,0,29.7,0c0,30,0,59.1,0,89.4C2527.2,1502.5,2215.4,1502.5,1902.5,1502.5z M964.7,339.1c18,2.3,1777.5,1.5,1785.6-0.8
		c-0.2-28.6,0.5-57.4-0.6-85.9c-16-2.1-1776.6-1.4-1785,0.7C964.7,281.4,964.7,309.9,964.7,339.1z"/>
	<path class="st0" d="M1407.4,2489.7c56.1,12.3,101.6,40.5,137,86.4c35.4-45.5,80.7-74.1,137.2-86.2c-2-3.2-3.5-5.6-5.1-7.9
		c-28.2-39.4-42.8-83.2-42.6-131.8c0.1-29.7-0.1-59.3,0.1-89c0.5-110.1,80.4-202.7,189.4-219.6c119.5-18.5,231.7,61.3,253.5,180.8
		c2.4,13,3.4,26.4,3.7,39.7c0.5,29,0.1,58,0.2,87c0.2,49.3-14.4,93.8-43.3,133.6c-1.2,1.6-2.3,3.3-3.4,4.9c-0.2,0.3-0.2,0.6-0.5,2.2
		c55,12.3,100.6,40.1,135.9,86c6.4-7.1,12.2-14.2,18.6-20.6c6.3-6.4,12.9-12.6,19.8-18.3c7.2-5.9,14.8-11.4,22.7-16.3
		c7.6-4.8,15.5-9.1,23.7-12.9c8.4-3.9,17.2-7.3,26-10.4c8.5-2.9,17.2-5,26.6-7.8c-1.9-2.9-3.4-5.4-5.1-7.7
		c-28.6-39.7-42.7-84-42.7-132.8c0-34.3-1.8-68.9,1.3-102.9c8.4-93.3,57.4-158.9,144.4-192.7c128.2-49.7,271.4,31.4,297.2,166.4
		c2.7,14.3,3.8,29.1,4.2,43.7c0.6,28,0.2,56,0.2,84c0.1,49.9-14.2,95.2-43.6,135.6c-1.3,1.8-2.6,3.8-4.3,6.3c3.1,1,5.5,1.9,8,2.5
		c91.1,21.6,158.2,94.6,171.7,187c1.3,9.2,2.1,18.6,2.2,27.9c0.2,42.7,0.1,85.3,0.1,128c0,2.6-0.3,5.2-0.6,8.5
		c-29.5,0-58.6,0-88.7,0c-0.2-3.8-0.5-7.3-0.5-10.9c0-41.3,0.2-82.7-0.1-124c-0.5-61.9-42.7-114.8-102.9-128.9
		c-10-2.3-20.4-3.4-30.7-3.5c-89.7-0.3-179.3-0.5-269-0.1c-73.9,0.3-132.3,59.1-133,133.1c-0.4,41-0.1,82-0.1,123
		c0,3.6,0,7.1,0,11.3c-30.1,0-59,0-89.1,0c-0.2-3.9-0.5-7.8-0.5-11.6c0-39.7-0.2-79.3,0-119c0.2-33.7-9.6-63.8-31.6-89.4
		c-25.8-30.2-58.8-47-98.7-47.3c-91.7-0.5-183.3-0.7-275,0c-68.3,0.6-124.5,54.6-129.7,122.6c-0.5,6-0.6,12-0.7,18
		c-0.1,38-0.1,76-0.1,114c0,3.9,0,7.9,0,12.5c-30.1,0-59.2,0-89.4,0c0-4.2,0-7.8,0-11.3c0-40,0-80,0-120
		c-0.1-22.3-4.3-43.8-15.1-63.5c-25.1-45.8-63.8-71.6-116.2-72.2c-91.3-1.1-182.7-0.8-274-0.1c-71.4,0.6-129.3,59-130.3,130.4
		c-0.6,41.3-0.2,82.7-0.2,124c0,3.9,0,7.9,0,11.6c-8.3,2.3-73.7,2.9-89.1,0.9c-0.2-2.7-0.7-5.5-0.7-8.4c0-42.3-0.3-84.7,0-127
		c0.8-102.5,72.3-191.8,172-215.4c3.1-0.7,6.2-1.6,10.1-2.6c-2.5-3.6-4.4-6.3-6.3-9c-27.4-38.7-41.5-81.7-41.8-129.1
		c-0.2-30-0.2-60,0-90c0.7-107.6,76.5-199.2,182.4-218.7c125.2-23.1,236,59.6,259.5,173.4c3,14.3,4.4,29,4.7,43.6
		c0.7,31,0.4,62,0.2,93c-0.4,47.8-15,91-43,129.7C1410.7,2484.5,1409.4,2486.7,1407.4,2489.7z M2616.3,2307.6
		c0-14.7,0.2-29.3-0.1-44c-0.1-7.6-0.7-15.3-1.8-22.9c-11.2-74-84.6-124.9-158-109.7c-63,13-107.1,66.6-107.7,131.2
		c-0.3,30-0.2,60,0.1,89.9c0.1,8.3,0.8,16.7,2.4,24.8c12.7,67,75.1,114.5,142.2,108.4c69.4-6.3,122.1-62.8,122.9-131.9
		C2616.4,2338.3,2616.3,2323,2616.3,2307.6z M1366.5,2308c-0.7-21.2-0.1-41.6-2.2-61.7c-8.1-76.9-83.4-131-159.1-115
		c-62.8,13.3-106.4,66.3-107,130.5c-0.3,30.3-0.1,60.6,0,90.9c0,5.7,0.2,11.4,1,16.9c11.4,76.2,78.7,125.8,154.9,114.2
		c56.9-8.6,104.4-57.6,110.2-115C1366.3,2348.5,1365.8,2327.7,1366.5,2308z M1990.8,2307.5c0,0,0.1,0,0.1,0c0-13.7,0.1-27.3-0.1-41
		c-0.1-7.7-0.1-15.4-1.2-22.9c-10.6-72.9-76.6-123-149.8-113.8c-62.3,7.8-112,58.9-115.5,121.6c-2.1,37.5-2.1,75.3,0.1,112.8
		c3.9,66,61.3,119.5,127.6,121.5c75.1,2.2,136.3-55.2,138.6-130.3C1991.2,2339.5,1990.8,2323.5,1990.8,2307.5z"/>
	<path class="st0" d="M1903.8,954.8c112.1-78.6,223.9-156.9,337.7-236.6c-28.1-8.5-55-13.7-82.5-21.8c7.2-28.9,14.4-57.4,21.7-86.5
		c22.2,5.5,43.1,10.8,64.1,16c37.5,9.4,75,18.6,112.4,28.1c23,5.8,35.9,21.6,36,45.3c0.3,56.6,0.1,113.3,0.1,169.9
		c0,2-0.3,3.9-0.5,5.8c-7.8,2.2-73.9,2.7-88.7,0.5c0-29.3,0-58.8,0-88.8c-5.6-0.2-8.3,3.1-11.3,5.2
		c-61.5,42.9-122.8,85.9-184.2,128.9c-57.9,40.5-115.7,81-173.6,121.6c-2.7,1.9-5.4,3.9-8.2,5.7c-17.1,10.8-36.1,10.3-52.3-1.9
		c-11.7-8.8-23-18.2-34.4-27.4c-51.3-41-102.5-82-153.8-123c-2.8-2.3-5.7-4.5-9.4-7.4c-94.9,67.8-189.6,135.5-285.1,203.7
		c-17.6-24.7-34.6-48.5-51.9-72.8c3.6-2.6,6.4-4.8,9.4-6.9c99.7-71.3,199.6-142.4,299.1-214.1c19.4-14,43-13.9,62.3,1.8
		c61,49.6,122.7,98.4,184.1,147.6C1897.5,949.9,1900.4,952.1,1903.8,954.8z"/>
</g>
</svg>
