<?xml version="1.0" encoding="utf-8"?>
<!-- Generator: Adobe Illustrator 21.0.0, SVG Export Plug-In . SVG Version: 6.00 Build 0)  -->
<svg version="1.1" id="Layer_1" xmlns="http://www.w3.org/2000/svg" xmlns:xlink="http://www.w3.org/1999/xlink" x="0px" y="0px"
	 viewBox="0 0 3000 3000" style="enable-background:new 0 0 3000 3000;" xml:space="preserve">
<g>
	<path d="M2742.2,2736c-10.2-11.2-23.2-16.3-38.4-16.2c-34,0.1-68,0-102,0c-3.5,0-7-0.3-11.1-0.5V1104.1c0-9,0-18,0-27
		c-0.5-75.6-60.5-137.5-136-138.4c-86.7-1-173.3-0.8-260,0c-63.3,0.5-117.5,44.9-132.6,106.4c-3.4,13.8-3.6,27.7-3.6,41.7v1614.9
		c0,3.7,0.1,7.3-0.1,11c-0.1,2.2-0.8,4.4-1.2,6.3c-18,1.9-279.9,1.1-288.1-1.1v-13.5c0-291.6,0-583.3,0-875c0-8.3,0.2-16.7-0.8-25
		c-9-69.4-66.4-121.2-136.7-121.8c-85.7-0.7-171.3-0.6-257,0.1c-42.6,0.3-78.3,17.6-105.7,50.4c-22.1,26.3-31.9,57-31.9,91.4
		c0.1,292.6,0.1,585.3,0.1,878c0,3.3,0.1,6.7-0.1,10c-0.1,2.2-0.7,4.4-1.1,6.8H947.6v-13.8c0-147.7,0-295.3,0-443
		c0-5.3,0-10.7-0.3-16c-4-72.6-63.5-130.1-136.3-130.6c-86.3-0.5-172.7-0.3-259,0.1c-12.2,0.1-24.7,2-36.4,5.4
		c-59.8,17.1-100.2,70.8-100.3,133.1c-0.2,97.3,0,194.6,0,292c0,53.7,0,107.3,0,161c0,3.8-0.4,7.7-0.6,12.2c-5.1,0-9.1,0-13,0
		c-36,0-72-0.3-108,0.2c-26.1,0.3-46.2,19.4-49.7,45.8c-3.1,23.8,13.2,48,37.6,54.4c6.9,1.8,14.5,1.9,21.8,2
		c797.6,0.1,1595.3,0.1,2392.9,0.1c3.7,0,7.3,0.2,11-0.1c21.7-1.5,37.3-12.3,45.3-32.3C2760.4,2770,2756.5,2751.7,2742.2,2736z
		 M844.6,2709.8c0,2.9-0.4,5.8-0.6,9.3H519.3c-0.3-3.3-0.7-6.2-0.7-9.1c0-151,0.2-302-0.2-453c-0.1-18.8,12.9-38.8,39-38.8
		c82.7,0.2,165.3,0,248,0.1c24.4,0,39.2,14.9,39.2,39.5C844.7,2408.5,844.7,2559.2,844.6,2709.8z M1665.9,2719.1h-324.5
		c-0.4-2.2-0.9-4.4-1.1-6.6c-0.2-2.7-0.1-5.3-0.1-8c0-291.3,0-582.6,0-873.8c0-4-0.1-8,0.2-12c1.2-18.4,15.3-32.2,33.8-33.1
		c3-0.2,6-0.1,9-0.1c80,0,160,0,239.9,0c3.7,0,7.3-0.1,11,0.3c16.4,1.5,29.7,14.7,31.4,31.2c0.4,3.6,0.4,7.3,0.4,11
		c0,292.9,0,585.9,0,878.8V2719.1z M2487.4,1087.1v1632.1h-325c-0.3-3-0.8-5.6-0.9-8.1c-0.1-4.3,0-8.7,0-13
		c0-536.6,0-1073.1,0-1609.6c0-5.6-0.1-11.4,0.8-16.9c2.7-17.3,16.2-29.8,33.6-29.9c85.6-0.3,171.3-0.3,256.9,0
		c19.4,0.1,33.7,15.1,34.5,34.4C2487.4,1079.8,2487.4,1083.4,2487.4,1087.1z"/>
	<path d="M1901.7,795.2c170.4-169.6,340.2-338.5,510.5-507.9c-3.7-3.2-7.4-2.1-10.8-2.1c-57.7-0.1-115.3,0-173-0.1
		c-5,0-10-0.1-14.9-0.8c-27.2-3.6-45.8-26.1-44.6-53.7c1.1-26,22.9-47.2,49.6-48.3c2-0.1,4,0,6,0c102.3,0,204.6,0,307,0.1
		c6.6,0,13.4,0.3,19.8,1.7c22.4,5.1,38.1,24.2,39.4,47.1c0.2,3,0.1,6,0.1,9c0,96.3,0.1,192.6-0.1,289c0,6.9-0.9,14.1-3.1,20.6
		c-7.8,23.3-32.2,37.6-56.1,33.7c-24.9-4-43.2-24.4-43.9-49.7c-0.4-14.7-0.1-29.3-0.1-44c0-39.3,0-78.7,0-118c0-3.6,0-7.1,0-13.3
		c-4.6,4.3-7.5,6.8-10.1,9.4c-110.4,109.8-220.7,219.5-331,329.3c-68.3,67.9-136.6,135.8-204.8,203.8c-8.5,8.4-17.8,14.9-29.7,17.2
		c-16.5,3.2-31-0.9-43.8-11.5c-3.1-2.5-5.8-5.5-8.7-8.3c-59.8-59.5-119.5-118.9-179.3-178.4c-2.5-2.5-5.1-5-8.2-7.9
		c-3.6,3.5-6.7,6.5-9.8,9.5c-293.5,291.9-586.9,583.9-880.3,875.9c-8.6,8.6-17.8,16-30,18.8c-21.9,5-44.4-4.4-56-23.5
		c-11.5-19.1-9.2-43.6,5.7-60.4c2.4-2.7,5.1-5.3,7.7-7.9c307.2-305.6,614.3-611.2,921.4-916.9c11.6-11.5,24.3-19.6,41.1-19.6
		c12.9,0,24.1,4.3,33.9,12.5c2.8,2.4,5.3,5,7.9,7.6c59.8,59.5,119.6,118.9,179.3,178.4C1895.4,789.3,1898.3,792,1901.7,795.2z"/>
	<path d="M616.7,1746.7c-0.2,28.2-23.7,51.2-52.1,51c-28.3-0.2-51.5-23.7-51.2-51.8c0.3-28.2,24-51.4,52.1-51
		C594,1695.2,616.9,1718.5,616.7,1746.7z"/>
</g>
</svg>
