<?xml version="1.0" encoding="utf-8"?>
<!-- Generator: Adobe Illustrator 21.0.0, SVG Export Plug-In . SVG Version: 6.00 Build 0)  -->
<svg version="1.1" id="Layer_1" xmlns="http://www.w3.org/2000/svg" xmlns:xlink="http://www.w3.org/1999/xlink" x="0px" y="0px"
	 viewBox="0 0 3000 3000" style="enable-background:new 0 0 3000 3000;" xml:space="preserve">
<style type="text/css">
	.st0{fill:#FFFFFF;}
	.st1{fill:#4F98D2;}
</style>
<g>
	<path class="st0" d="M2604.2,1607.6c-5.8-55.9-15.5-111.1-29.6-165.4c-75.8-291.4-261.7-540.3-519.4-694.7
		c-152.5-91.3-317.7-142.3-495.2-152.6c-88.5-5.1-176.3,1-263.4,17.9c-117,22.6-227.5,63-330.6,122.5
		c-222.4,128.2-384,311-485.8,546.4c-52.5,121.5-81.5,248.7-88.7,380.8c-4.3,78.7-0.3,157.2,9.4,235.5
		c7.4,59.1,18.4,117.4,34.3,174.9c17.6,63.8,40.6,125.4,73.1,183.3c6.3,11.2,6.3,11.2,19.4,11.2c218.5,0,437.1,0,655.6-0.1
		c7.9,0,13.3,1.8,18.8,8.2c23.7,27.6,51.2,50.9,82.2,69.8c94.6,57.9,196.6,74.9,304.7,51.7c83.2-17.9,153.7-58.8,210.3-122.8
		c4.3-4.9,8.6-6.9,15.1-6.9c110.3,0.2,220.5,0.1,330.8,0.1h327.4c2.3,0,4.6-0.3,6.8,0.1c4.7,0.7,7.4-1.5,9.2-5.5
		c0.7-1.5,1.6-3,2.5-4.4c32.1-56.4,54.8-116.7,72.4-179c26.6-94.3,40.4-190.6,45.3-288.3C2611.7,1729.2,2610.6,1668.3,2604.2,1607.6
		z M666.3,1988H529.7c-1.9-5.7-2.8-123.2-0.8-139.1h137C667.6,1855.6,667.9,1978.7,666.3,1988z M805.6,1428.9
		c-5.8,1.8-124.5,2.4-137.3,0.8c-1.7-5.9-2.1-128.2-0.4-138.6h137.7V1428.9z M1778,872.4h138.2v139.1H1778V872.4z M1084.9,1011.5
		c-2-5.9-2.8-124-1-138.2c5.9-1.9,120.2-2.7,137.1-1c1.9,6.2,2.2,130.5,0.2,139.1H1084.9z M2326.5,1436
		c-100.4,86-200.8,172.2-301.1,258.3c-84.7,72.7-169.4,145.5-254.3,218c-6.2,5.3-7.6,10.3-5.3,17.5c1.7,5.4,2.8,10.9,4.6,16.3
		c7.7,23.2,8.9,46.9,6.1,71c-8.4,71.9-39.2,132.4-93.3,180.6c-45.7,40.6-99.2,63.5-160.3,68.9c-125.6,11-242.8-66.9-284.6-185.2
		c-56.3-158.9,41.2-332.4,206-366.7c54.3-11.3,106.5-5.1,156.9,17.6c3.1,1.4,6.1,2.8,9.9,4.5c2.9-2.2,5.4-4,7.9-5.8
		c189.1-144.8,378.3-289.7,567.3-434.7c5.5-4.2,10.9-5.9,17.8-5.9c39.5,0.2,78.9,0.1,118.4,0.1h10.7v9.4c0,40.6-0.2,81.2,0.2,121.8
		C2333.4,1428.1,2331.1,1432.1,2326.5,1436z M2471.5,1987.1c-6.3,1.8-126.9,2.3-138.2,0.5v-138.5h138.2V1987.1z"/>
	<path class="st1" d="M1638.5,1988.1c0.2,76.9-61.5,139.3-138,139.4c-77,0.2-139.1-62-139-139.3c0.1-76.8,62.1-139.2,138.4-139.2
		C1576.3,1848.9,1638.4,1911.2,1638.5,1988.1z"/>
</g>
<g>
</g>
<g>
</g>
<g>
</g>
<g>
</g>
<g>
</g>
<g>
</g>
<g>
</g>
<g>
</g>
<g>
</g>
<g>
</g>
<g>
</g>
<g>
</g>
<g>
</g>
<g>
</g>
<g>
</g>
</svg>
