<?xml version="1.0" encoding="utf-8"?>
<!-- Generator: Adobe Illustrator 21.0.0, SVG Export Plug-In . SVG Version: 6.00 Build 0)  -->
<svg version="1.1" id="Layer_1" xmlns="http://www.w3.org/2000/svg" xmlns:xlink="http://www.w3.org/1999/xlink" x="0px" y="0px"
	 viewBox="0 0 3000 3000" style="enable-background:new 0 0 3000 3000;" xml:space="preserve">
<polygon points="1976.4,307 1520.5,307.7 1559.9,239 2010.1,240.3 "/>
<polygon points="1901.4,462.2 1445.5,462.8 1484.9,394.2 1935.1,395.4 "/>
<polygon points="1826.3,617.3 1370.4,618 1409.9,549.3 1860,550.6 "/>
<polygon points="1751.3,772.5 1295.4,773.1 1334.8,704.5 1785,705.7 "/>
<polygon points="1676.3,927.6 1220.4,928.3 1259.8,859.6 1710,860.9 "/>
<polygon points="1601.2,1082.8 1145.3,1083.4 1184.8,1014.8 1634.9,1016 "/>
<polygon points="1881.7,1238.6 1070.3,1238.6 1107.2,1166.1 1928.7,1171.2 "/>
<polygon points="1811.7,1391.2 1000.4,1391.2 1037.2,1318.7 1858.8,1323.8 "/>
<polygon points="1362.8,1480.2 1332.3,1547.6 1662.9,1547.6 1712.5,1480.2 "/>
<polygon points="1297.9,1636.6 1267.4,1704 1551,1700.2 1598.1,1636.6 "/>
<polygon points="1224.2,1788 1193.7,1855.4 1442.9,1851.6 1491.2,1788 "/>
<polygon points="1159.3,1944.4 1128.8,2011.8 1336.1,2011.8 1381.9,1944.4 "/>
<polygon points="1091.9,2100.8 1061.4,2168.2 1228,2168.2 1273.8,2098.3 "/>
<polygon points="1019.4,2254.7 988.9,2322.1 1122.4,2322.1 1163.1,2252.1 "/>
<polygon points="955.8,2408.6 925.3,2476 1008.5,2477.5 1056.3,2407.3 "/>
<polygon points="885.9,2563.7 855.4,2631.1 899.9,2633.7 945.7,2562.4 "/>
<polygon points="813.4,2717.6 782.9,2785 782.9,2785 838.8,2717.6 "/>
<g>
</g>
<g>
</g>
<g>
</g>
<g>
</g>
<g>
</g>
<g>
</g>
<g>
</g>
<g>
</g>
<g>
</g>
<g>
</g>
<g>
</g>
<g>
</g>
<g>
</g>
<g>
</g>
<g>
</g>
</svg>
