<?xml version="1.0" encoding="utf-8"?>
<!-- Generator: Adobe Illustrator 21.0.0, SVG Export Plug-In . SVG Version: 6.00 Build 0)  -->
<svg version="1.1" id="Layer_1" xmlns="http://www.w3.org/2000/svg" xmlns:xlink="http://www.w3.org/1999/xlink" x="0px" y="0px"
	 viewBox="0 0 3000 3000" style="enable-background:new 0 0 3000 3000;" xml:space="preserve">
<style type="text/css">
	.st0{fill:#579CD4;}
</style>
<g>
	<path class="st0" d="M2831.9,1734.4c-1.4,2.6-3.5,5-4,7.7c-6.7,33.7-21.7,62.5-48.8,84.2c-21.7,17.3-46.5,27-74.6,27
		c-97.1,0.1-194.1,0-291.2,0.2c-7.1,0-10.3-2.9-11.3-9.7c-3.7-24.9-10.9-48.9-21.9-71.6c-23.2-47.9-58.4-85.2-102-114.9
		c-31.3-21.3-65.6-36.5-101.1-49.3c-40.5-14.6-80.5-30.3-120.8-45.6c-31.2-11.8-62.3-23.7-93.5-35.5c-20.4-7.7-40.5-16.2-61.2-22.5
		c-26.5-8-53.5-14.2-80.3-20.9c-8.9-2.2-10.1-4.8-4.2-11.6c24.1-27.6,44.6-57.7,60.3-90.8c5.4-11.4,16.2-12.1,25.6-15.4
		c28.4-9.8,58-16.8,83.6-33.1c16-10.2,30.7-22.8,45.1-35.3c9.8-8.5,18.8-18,27.2-28c20.4-24.1,22.7-51.2,9.2-78.9
		c-8.9-18.2-20.4-35.2-31.2-52.4c-17.3-27.6-25.8-57.8-27.2-90c-0.9-22.6-2.4-45.2-10-66.4c-6.7-18.6-15.2-36.7-24.5-54.2
		c-8-15.3-9.3-31-8.3-47.5c0.3-5.8,4.1-8,9.6-8.3c12.2-0.8,15-3.3,14-15.2c-1.1-13.2-3.3-26.3-5.3-39.3
		c-7.2-46.3-10.6-92.7-2.5-139.2c2-11.6,7.1-22.9,12-33.8c4.2-9.3,12.3-15.5,21.6-19.8c21.1-9.7,38.9-23.1,50.9-43.6
		c17.4-29.6,45.7-42.2,77.7-48.1c18.8-3.5,37.9-5.7,56.8-8.7c2.3-0.4,4.5-1.9,6.7-2.9c18,0,36,0,54,0c2,1,3.9,2.5,6,2.8
		c18.9,3,38,5.4,56.8,8.7c34.3,5.9,63.2,20.5,81.4,52.1c9.4,16.3,23.6,27.7,40.4,35.6c14.7,6.8,27.5,15.5,33.4,31.1
		c4.6,12.1,9.2,24.7,10.3,37.4c3.3,40.4,3.3,80.8-3.3,121c-2.5,14.9-5,29.9-6.9,44.9c-1.6,12.8,2.1,17,14.8,17.6
		c14.2,0.7,23.6,7.9,28.3,20.9c1.8,5,2.9,10.5,3.2,15.9c1.8,25.2-2,50.1-6,74.9c-4.8,29.6-19,53.1-45.2,68.8
		c-4.2,2.6-8.1,6.9-10.4,11.4c-4.5,9-8.4,18.5-11.4,28.1c-4.9,15.6-10,30.9-18.9,44.9c-11.3,17.8-22.9,35.4-32.3,54.2
		c-10.8,21.8-12.5,45.1,1.7,66.3c8.4,12.6,19.3,23.8,29.9,34.9c25.1,26.5,54.5,46.7,89.5,58.3c21.8,7.2,43.6,14.1,65.2,21.9
		c26.5,9.6,52.6,20.1,79,29.8c25.8,9.4,52,17.4,75.9,31.4c41.6,24.4,72.8,57,84.5,105.4c0.4,1.7,2.5,3,3.8,4.5
		C2831.9,1607.5,2831.9,1671,2831.9,1734.4z"/>
	<path class="st0" d="M1531.9,521.1c2.3,1,4.5,2.5,6.8,2.8c38.7,5.4,77.5,10.5,115.1,21.5c47,13.7,92.8,30.4,130.5,63.3
		c37.5,32.6,61.4,73.3,71.1,122.3c9.8,49.4,3.9,97.9-5.7,146.5c-5.6,28.3-9.2,57-13.3,85.5c-1.5,10.4,4,16.5,14.6,17.8
		c25.6,3,41.5,18.8,41.6,44.8c0.1,23.1-1.6,46.3-4,69.3c-1.9,18.1-5.3,36.1-9.2,53.8c-4.6,20.6-16.5,37-32.4,50.5
		c-5.8,4.9-11.3,10.1-17.1,14.9c-16.5,13.8-27,30.8-32.1,52.1c-13.7,56.3-42.4,104.5-82.1,146.3c-36.7,38.7-80.8,65.7-131.4,82.9
		c-21.2,7.2-42.2,13.9-64.7,14.7c-28.8,1-56-4.8-83.2-14.7c-37.8-13.8-72.8-31.6-103.8-57.3c-45.3-37.5-78.1-84.2-99.4-138.7
		c-7.9-20.2-13.8-41.2-20.7-61.9c-3.3-10-10.1-16.8-18.9-22.2c-28-16.9-46-41.2-53.4-73c-8.5-36.7-14-73.9-12.8-111.8
		c0.6-18.1,6.2-34.5,22.2-44.4c6.2-3.9,14.6-5,22.2-5.8c13.9-1.5,18.7-5.3,17.6-19.1c-1.1-14.4-2.6-28.8-5.7-42.8
		c-5.4-24.4-7.9-49-9.1-73.9c-1.6-33.6-3-67.2,0.8-100.7c2-18,5.9-35.4,13.2-52.1c7.8-17.8,20.2-30.3,37.8-38.5
		c25.5-12,47.3-28.1,61.9-53.3c20.4-35.2,52.5-54.7,91.8-62c30-5.6,60.3-9.2,90.5-13.8c2.6-0.4,5-2,7.4-3
		C1495.9,521.1,1513.9,521.1,1531.9,521.1z"/>
	<path class="st0" d="M446.8,1849.1c-50.4,0-100.9-0.3-151.3,0.1c-57.9,0.5-102.8-37.8-118.5-87.9c-6-19.1-9.1-38.5-8.9-58.6
		c0.5-44-0.4-88.1,0.1-132.1c0.4-32.3,13.1-60.1,33.7-84.7c22.2-26.4,50.2-44.7,82.2-56.5c49.2-18.2,99.1-34.9,148.1-53.6
		c49.4-18.9,95.6-43.6,133.2-82c13.6-13.9,22.4-30.4,26.2-49.5c3.2-16.7-6.3-27.2-22.6-23.2c-13.2,3.2-25.6,9.7-38.7,13.8
		c-19.6,6.1-39.3,12.2-59.4,16.7c-32.3,7.3-65.2,9.5-98.1,5.6c-31.2-3.7-61.4-11.7-89.1-27.1c-5.5-3.1-10.5-7.4-14.8-11.9
		c-6-6.3-6-13.8-0.3-20.5c3-3.6,6.7-6.7,10.5-9.4c49.4-34.8,89.3-78.2,118.6-131.1c16.1-29.1,27.1-60.2,35.9-92.4
		c10.8-39.8,8.6-80.8,13.3-121.2c4.3-36.9,7.7-73.9,13.7-110.6c11.9-72.5,52.5-124.6,116.3-160c57.4-31.8,118.8-46.7,184.1-43.2
		c72.5,3.9,138.2,27.4,194.3,74.1c35.1,29.1,57.5,66.6,67.8,111.4c13.7,59.4,16.7,119.9,21.6,180.3c1.7,20.5-1.5,37.8-12.6,55.3
		c-14.4,22.6-19.1,48.7-20,75.3c-1.2,34.7,2.8,69,7.7,103.2c4,28.3,10.5,55.9,22.5,81.8c5.7,12.4,13.5,23.8,20.2,35.8
		c1.6,2.9,2.6,6.1,3.8,9.2c-3.1,0.5-6.4,1.6-9.4,1.3c-40.1-4.7-79.4-12.5-116.4-29.6c-7.8-3.6-16.5-6-25.1-7.4
		c-12.4-2-21,5.3-19.5,17.8c1.3,10.8,4.9,21.6,9.4,31.6c8.8,19.6,25.4,32.7,41.6,45.9c29,23.8,61.9,41.3,96.6,54.8
		c36.6,14.3,73.9,26.7,110.7,40.4c4.7,1.7,9,6,12.2,10.1c12.8,16.7,25.1,33.8,37.5,50.8c1.6,2.2,3.9,5.7,3.2,7.2
		c-1.1,2.1-4.6,3.5-7.3,4.2c-42.5,9.7-84.4,21-124.9,37.5c-29.8,12.1-60.2,22.6-90.3,34c-30.5,11.6-60.9,23.4-91.5,34.9
		c-26.1,9.9-52.6,18.9-78.4,29.4c-60.8,24.7-113.3,61-151.8,115.2c-21.1,29.7-35.6,62.4-42.4,98.3c-0.6,3-1.3,6-2,9
		c-1.2,5.5-4.3,7.6-10.1,7.6C554.3,1849.1,500.6,1849.2,446.8,1849.1C446.8,1849.2,446.8,1849.2,446.8,1849.1z"/>
	<path class="st0" d="M1409.7,2056.2c0.5-1.7,1.2-3.5,1.4-5.2c6.6-50.5,13.2-100.9,19.6-151.4c5.4-42,10.7-84.1,15.6-126.1
		c0.6-5.1-0.4-11-2.4-15.7c-7.9-18.2-16.8-36-24.7-54.2c-2.4-5.5-4-11.8-4-17.7c0.1-13.7,6.2-25.8,14.2-36.4
		c2.9-3.9,8.9-6.2,13.9-7.5c5.9-1.5,12.2-1.4,18.3-1.4c32.4-0.1,64.9-0.1,97.3,0c4.7,0,9.5,0.5,14.2,0.7
		c11.1,0.2,18.9,5.6,23.3,15.6c2.9,6.5,5.7,13,8,19.7c4.1,12.3-0.5,23.1-5.8,34c-8.2,17-16,34.3-23.6,51.6c-1.3,2.9-1.5,6.5-1.1,9.7
		c6.3,49.8,12.7,99.5,19.1,149.3c5.4,42,10.6,84.1,16.1,126.1c0.4,2.8,2.3,5.3,3.4,8c2.1-2.1,5.3-3.9,6.3-6.5
		c6.4-17,12.5-34.2,18.5-51.4c10.2-29.5,20.5-59,30.4-88.6c10.4-31.2,20.8-62.4,30.5-93.8c12.2-40,24-80.2,35.3-120.5
		c8.3-29.6,15.7-59.5,23.4-89.2c3.2-12.3,5.2-14.7,17.6-12.5c19.1,3.3,37.9,8.1,56.8,12.3c28.7,6.4,56.2,16.7,83.6,27.1
		c41.1,15.6,82.2,31.4,123.3,47.1c42.4,16.2,85.2,31.6,127.3,48.6c41.8,16.9,78,41.6,102.7,80.6c13.9,22,20.5,45.8,20.3,72
		c-0.5,67,0.4,134-0.4,201c-0.5,41.6-13.9,78.8-45.9,107.1c-19.2,17-42.1,26-68,26.6c-4,0.1-8.1,0-12.1,0c-436.6,0-873.3,0-1309.9,0
		c-47.9,0-88.3-27.3-106.6-72.3c-9-22.1-13.8-45.1-13.7-69.2c0.3-65.8-0.3-131.7,0.2-197.5c0.2-39.7,18.2-71.9,45.8-99.1
		c25.9-25.5,57.4-42.3,91.1-55.1c35.2-13.3,70.3-26.7,105.5-40c31.7-12,63.4-23.8,95-35.8c18.4-6.9,36.8-13.6,55-21
		c32.8-13.4,67.3-20.8,101.6-29c7.8-1.9,15.8-2.7,23.7-4c6.8-1.1,10.6,1.4,12.4,8.3c8.3,31.6,16.7,63.1,25.5,94.6
		c9.7,34.9,19.4,69.7,29.9,104.4c9.3,30.8,19.1,61.4,29.4,91.9c12.8,38.1,26.4,75.9,39.6,113.9c4.7,13.6,9.2,27.4,14.1,40.9
		c1.4,3.9,4.2,7.4,6.3,11C1407.9,2056.7,1408.8,2056.4,1409.7,2056.2z"/>
</g>
<g>
</g>
<g>
</g>
<g>
</g>
<g>
</g>
<g>
</g>
<g>
</g>
<g>
</g>
<g>
</g>
<g>
</g>
<g>
</g>
<g>
</g>
<g>
</g>
<g>
</g>
<g>
</g>
<g>
</g>
</svg>
