<?xml version="1.0" encoding="utf-8"?>
<!-- Generator: Adobe Illustrator 21.0.0, SVG Export Plug-In . SVG Version: 6.00 Build 0)  -->
<svg version="1.1" id="Layer_1" xmlns="http://www.w3.org/2000/svg" xmlns:xlink="http://www.w3.org/1999/xlink" x="0px" y="0px"
	 viewBox="0 0 3000 3000" style="enable-background:new 0 0 3000 3000;" xml:space="preserve">
<style type="text/css">
	.st0{fill:#579CD4;}
</style>
<g>
	<path class="st0" d="M477.8,2272.3c1.2-6.4,2.3-12.9,3.6-19.3c9.7-46.2,33.5-85.3,63.1-121.1c45.4-55.1,100.3-99.4,158.8-139.6
		c92.4-63.7,191.4-115.3,294-160.2c40.1-17.5,80.9-33.2,121.4-49.8c2.4-1,4.9-1.8,7.8-2.9c56.3,232,116.7,462.1,218.2,679.1
		c30.6-122.4,72.4-240.5,122.8-356.1c-8.1-4.5-15.9-8.5-23.3-13c-19.8-12-37.7-26.1-53.5-43.2c-37.4-40.6-28.2-90.8-0.1-124
		c24.2-28.6,56.6-44.3,91.1-56.7c12.5-4.5,23.6-4.1,35.8,1.3c30.6,13.6,60,28.8,84,52.7c15.4,15.3,26.9,32.8,30.9,54.7
		c4.6,24.9-2.8,46.5-17.6,66c-18.6,24.4-43.3,41.5-70.1,55.7c-4,2.1-8.2,4.1-12.6,6.4c50.6,116.6,92.4,235.6,122,360.5
		c1.7-3.1,2.6-4.6,3.4-6.2c43.6-90.5,77.1-185,107.2-280.6c40-127.1,74.1-255.8,103.1-385.9c0.5-2.3,1.3-4.6,2.2-7.8
		c10.1,3.5,19.7,6.8,29.3,10.3c107.8,39.7,212.4,86.4,312,143.9c76.5,44.2,149.2,93.7,211.6,156.9c32.9,33.3,61.5,69.7,80.6,112.9
		c9.4,21.2,15.8,43.1,17.6,66.3c0.2,1.9,0.8,3.8,1.3,5.6c0,32.8,0,65.6,0,98.4c-0.5,2.1-1.2,4.2-1.4,6.4c-1.6,20.2-6.5,39.5-14.6,58
		c-20.9,47.8-57,81.8-99.9,109.5c-55.2,35.6-116.1,58.1-178.9,76c-114.6,32.5-232.1,48.1-350.4,58.3c-50.4,4.3-101,7.6-151.6,9.3
		c-77.7,2.6-155.5,4.5-233.3,4.6c-71.4,0-142.9-1.7-214.2-4.7c-62.3-2.6-124.6-6.2-186.6-12.7c-65.8-6.9-131.5-16.4-196.8-27.3
		c-73.6-12.3-145.7-31.4-215-59.8c-47.6-19.5-92.5-43.4-130.9-78.2c-32.3-29.2-56-63.9-66-106.9c-2-8.7-3.3-17.6-4.9-26.4
		C477.8,2345.8,477.8,2309,477.8,2272.3z"/>
	<path class="st0" d="M1504.4,301.4c16.6,1.2,33.1,2.3,49.7,3.8c114.3,10.1,217.7,48,306.3,122.4c68.4,57.5,116.8,129.2,148.1,212.6
		c34.1,91,45.1,185.4,40.7,282c-5.5,119.7-34.7,233.7-82.5,343.2c-37.1,85-84.4,163.8-143.7,235.3c-8.1,9.8-15.8,20.2-25.2,28.6
		c-13.6,12.1-19.8,27.3-23.9,44.2c-7.2,29.9-12.3,59.9-9.5,90.8c0.8,8.7,2.1,17.5,4.4,25.9c1.6,6.1,0.1,9.9-3.8,14.3
		c-24,27.3-51.8,50.2-83.6,67.4c-116.4,63.2-234.4,64.8-352.8,5.9c-36.9-18.4-68.8-43.9-96.1-74.9c-4.5-5.2-6-9.4-3.3-16.8
		c11.2-31.2,10.6-63.3,4.2-95.5c-0.8-3.8-1.6-7.7-2.5-11.5c-4.5-19.6-13.2-36.2-27.4-51.4c-68.4-73.2-121.2-157-163.2-247.8
		c-35-75.8-60.7-154.6-75.9-236.8C945,938.6,943.1,834,965,729.5c16.5-78.8,46.5-151.8,94.5-216.8c69.5-94.3,162-155.2,274-187.5
		c50.6-14.6,102.5-20.7,154.9-23c2.4-0.1,4.8-0.5,7.2-0.8C1498.5,301.4,1501.5,301.4,1504.4,301.4z"/>
</g>
<g>
</g>
<g>
</g>
<g>
</g>
<g>
</g>
<g>
</g>
<g>
</g>
<g>
</g>
<g>
</g>
<g>
</g>
<g>
</g>
<g>
</g>
<g>
</g>
<g>
</g>
<g>
</g>
<g>
</g>
</svg>
